<svg width="165" height="46" viewBox="0 0 165 46" fill="none" xmlns="http://www.w3.org/2000/svg">
<path d="M32.3689 28.8L37.3289 1.32C37.3556 1.21333 37.4222 1.16 37.5289 1.16H43.3289C43.4356 1.16 43.5022 1.21333 43.5289 1.32L48.2889 28.8C48.3156 28.9333 48.2622 29 48.1289 29H43.6889C43.5822 29 43.5156 28.9333 43.4889 28.8L43.0489 25.88H37.6089L37.1689 28.8C37.1422 28.9333 37.0756 29 36.9689 29H32.5289C32.4222 29 32.3689 28.9333 32.3689 28.8ZM38.4089 21.6H42.2489L40.6089 10.36L40.3689 8.88L40.2089 10.36L38.4089 21.6ZM56.818 29.4C55.378 29.4 54.058 29.04 52.858 28.32C51.6846 27.5733 50.738 26.6 50.018 25.4C49.3246 24.1733 48.978 22.8267 48.978 21.36V19.52C48.978 19.3867 49.0446 19.32 49.178 19.32H53.658C53.7646 19.32 53.818 19.3867 53.818 19.52V21.36C53.818 22.24 54.1113 23 54.698 23.64C55.2846 24.2533 55.9913 24.56 56.818 24.56C57.6446 24.56 58.3513 24.24 58.938 23.6C59.5246 22.96 59.818 22.2133 59.818 21.36C59.818 20.3733 59.178 19.52 57.898 18.8C57.4713 18.56 56.8046 18.1867 55.898 17.68C54.9913 17.1733 54.138 16.6933 53.338 16.24C51.8713 15.3867 50.778 14.32 50.058 13.04C49.3646 11.7333 49.018 10.2667 49.018 8.64C49.018 7.14667 49.378 5.81333 50.098 4.64C50.818 3.44 51.7646 2.49333 52.938 1.8C54.138 1.10667 55.4313 0.759999 56.818 0.759999C58.2313 0.759999 59.5246 1.12 60.698 1.84C61.898 2.53333 62.8446 3.48 63.538 4.68C64.258 5.85333 64.618 7.17333 64.618 8.64V11.92C64.618 12.0267 64.5646 12.08 64.458 12.08H59.978C59.8713 12.08 59.818 12.0267 59.818 11.92L59.778 8.64C59.778 7.70667 59.4846 6.94667 58.898 6.36C58.3113 5.77333 57.618 5.48 56.818 5.48C55.9913 5.48 55.2846 5.8 54.698 6.44C54.1113 7.05333 53.818 7.78667 53.818 8.64C53.818 9.52 54.0046 10.2533 54.378 10.84C54.7513 11.4267 55.4313 11.9867 56.418 12.52C56.5513 12.6 56.8046 12.7467 57.178 12.96C57.578 13.1467 58.0046 13.3733 58.458 13.64C58.9113 13.88 59.3113 14.0933 59.658 14.28C60.0313 14.4667 60.258 14.5867 60.338 14.64C61.6713 15.3867 62.7246 16.3067 63.498 17.4C64.2713 18.4667 64.658 19.7867 64.658 21.36C64.658 22.88 64.298 24.2533 63.578 25.48C62.8846 26.68 61.938 27.64 60.738 28.36C59.5646 29.0533 58.258 29.4 56.818 29.4ZM73.8102 29.4C72.3702 29.4 71.0502 29.04 69.8502 28.32C68.6768 27.5733 67.7302 26.6 67.0102 25.4C66.3168 24.1733 65.9702 22.8267 65.9702 21.36V19.52C65.9702 19.3867 66.0368 19.32 66.1702 19.32H70.6502C70.7568 19.32 70.8102 19.3867 70.8102 19.52V21.36C70.8102 22.24 71.1035 23 71.6902 23.64C72.2768 24.2533 72.9835 24.56 73.8102 24.56C74.6368 24.56 75.3435 24.24 75.9302 23.6C76.5168 22.96 76.8102 22.2133 76.8102 21.36C76.8102 20.3733 76.1702 19.52 74.8902 18.8C74.4635 18.56 73.7968 18.1867 72.8902 17.68C71.9835 17.1733 71.1302 16.6933 70.3302 16.24C68.8635 15.3867 67.7702 14.32 67.0502 13.04C66.3568 11.7333 66.0102 10.2667 66.0102 8.64C66.0102 7.14667 66.3702 5.81333 67.0902 4.64C67.8102 3.44 68.7568 2.49333 69.9302 1.8C71.1302 1.10667 72.4235 0.759999 73.8102 0.759999C75.2235 0.759999 76.5168 1.12 77.6902 1.84C78.8902 2.53333 79.8368 3.48 80.5302 4.68C81.2502 5.85333 81.6102 7.17333 81.6102 8.64V11.92C81.6102 12.0267 81.5568 12.08 81.4502 12.08H76.9702C76.8635 12.08 76.8102 12.0267 76.8102 11.92L76.7702 8.64C76.7702 7.70667 76.4768 6.94667 75.8902 6.36C75.3035 5.77333 74.6102 5.48 73.8102 5.48C72.9835 5.48 72.2768 5.8 71.6902 6.44C71.1035 7.05333 70.8102 7.78667 70.8102 8.64C70.8102 9.52 70.9968 10.2533 71.3702 10.84C71.7435 11.4267 72.4235 11.9867 73.4102 12.52C73.5435 12.6 73.7968 12.7467 74.1702 12.96C74.5702 13.1467 74.9968 13.3733 75.4502 13.64C75.9035 13.88 76.3035 14.0933 76.6502 14.28C77.0235 14.4667 77.2502 14.5867 77.3302 14.64C78.6635 15.3867 79.7168 16.3067 80.4902 17.4C81.2635 18.4667 81.6502 19.7867 81.6502 21.36C81.6502 22.88 81.2902 24.2533 80.5702 25.48C79.8768 26.68 78.9302 27.64 77.7302 28.36C76.5568 29.0533 75.2502 29.4 73.8102 29.4ZM84.592 29C84.4854 29 84.432 28.9333 84.432 28.8L84.472 1.32C84.472 1.21333 84.5254 1.16 84.632 1.16H97.472C97.5787 1.16 97.632 1.22667 97.632 1.36V5.84C97.632 5.94666 97.5787 6 97.472 6H89.272V12.24H97.472C97.5787 12.24 97.632 12.2933 97.632 12.4L97.672 16.92C97.672 17.0267 97.6187 17.08 97.512 17.08H89.272V24.08H97.512C97.6187 24.08 97.672 24.1467 97.672 24.28V28.84C97.672 28.9467 97.6187 29 97.512 29H84.592ZM105.229 29C105.122 29 105.069 28.9333 105.069 28.8V6H99.8689C99.7356 6 99.6689 5.93333 99.6689 5.8L99.7089 1.32C99.7089 1.21333 99.7622 1.16 99.8689 1.16H115.069C115.202 1.16 115.269 1.21333 115.269 1.32V5.8C115.269 5.93333 115.216 6 115.109 6H109.869L109.909 28.8C109.909 28.9333 109.856 29 109.749 29H105.229ZM123.849 29.4C122.409 29.4 121.089 29.04 119.889 28.32C118.716 27.5733 117.769 26.6 117.049 25.4C116.356 24.1733 116.009 22.8267 116.009 21.36V19.52C116.009 19.3867 116.076 19.32 116.209 19.32H120.689C120.796 19.32 120.849 19.3867 120.849 19.52V21.36C120.849 22.24 121.143 23 121.729 23.64C122.316 24.2533 123.023 24.56 123.849 24.56C124.676 24.56 125.383 24.24 125.969 23.6C126.556 22.96 126.849 22.2133 126.849 21.36C126.849 20.3733 126.209 19.52 124.929 18.8C124.503 18.56 123.836 18.1867 122.929 17.68C122.023 17.1733 121.169 16.6933 120.369 16.24C118.903 15.3867 117.809 14.32 117.089 13.04C116.396 11.7333 116.049 10.2667 116.049 8.64C116.049 7.14667 116.409 5.81333 117.129 4.64C117.849 3.44 118.796 2.49333 119.969 1.8C121.169 1.10667 122.463 0.759999 123.849 0.759999C125.263 0.759999 126.556 1.12 127.729 1.84C128.929 2.53333 129.876 3.48 130.569 4.68C131.289 5.85333 131.649 7.17333 131.649 8.64V11.92C131.649 12.0267 131.596 12.08 131.489 12.08H127.009C126.903 12.08 126.849 12.0267 126.849 11.92L126.809 8.64C126.809 7.70667 126.516 6.94667 125.929 6.36C125.343 5.77333 124.649 5.48 123.849 5.48C123.023 5.48 122.316 5.8 121.729 6.44C121.143 7.05333 120.849 7.78667 120.849 8.64C120.849 9.52 121.036 10.2533 121.409 10.84C121.783 11.4267 122.463 11.9867 123.449 12.52C123.583 12.6 123.836 12.7467 124.209 12.96C124.609 13.1467 125.036 13.3733 125.489 13.64C125.943 13.88 126.343 14.0933 126.689 14.28C127.063 14.4667 127.289 14.5867 127.369 14.64C128.703 15.3867 129.756 16.3067 130.529 17.4C131.303 18.4667 131.689 19.7867 131.689 21.36C131.689 22.88 131.329 24.2533 130.609 25.48C129.916 26.68 128.969 27.64 127.769 28.36C126.596 29.0533 125.289 29.4 123.849 29.4Z" fill="white"/>
<path d="M41 43H115" stroke="white" stroke-width="5"/>
<path d="M118.784 43.0757L133.47 43.0843" stroke="#EB018A" stroke-width="5"/>
</svg>
