<svg width="229" height="46" viewBox="0 0 229 46" fill="none" xmlns="http://www.w3.org/2000/svg">
<path d="M66.7873 29C66.6807 29 66.6273 28.9333 66.6273 28.8L66.7073 1.32C66.7073 1.21333 66.7607 1.16 66.8673 1.16H74.5473C76.0673 1.16 77.4273 1.53333 78.6273 2.28C79.8273 3 80.774 3.96 81.4673 5.16C82.1607 6.36 82.5073 7.66667 82.5073 9.08C82.5073 10.2267 82.2407 11.2933 81.7073 12.28C81.2007 13.2667 80.5873 14.0667 79.8673 14.68C80.6407 15.4533 81.2407 16.3467 81.6673 17.36C82.094 18.3733 82.3073 19.44 82.3073 20.56C82.3073 22.1067 81.934 23.52 81.1873 24.8C80.4407 26.08 79.4273 27.1067 78.1473 27.88C76.894 28.6267 75.494 29 73.9473 29H66.7873ZM71.5073 12.2H74.5473C75.4807 12.2 76.2273 11.88 76.7873 11.24C77.374 10.5733 77.6673 9.85333 77.6673 9.08C77.6673 8.22667 77.3607 7.49333 76.7473 6.88C76.134 6.24 75.4007 5.92 74.5473 5.92H71.5073V12.2ZM71.4673 24.12H73.9473C74.9073 24.12 75.734 23.7733 76.4273 23.08C77.1207 22.36 77.4673 21.52 77.4673 20.56C77.4673 19.6 77.1207 18.7733 76.4273 18.08C75.734 17.3867 74.9073 17.04 73.9473 17.04H71.5073L71.4673 24.12ZM85.342 29C85.2354 29 85.182 28.9333 85.182 28.8L85.262 1.32C85.262 1.21333 85.3154 1.16 85.422 1.16H93.502C94.942 1.16 96.262 1.52 97.462 2.24C98.6887 2.93333 99.662 3.88 100.382 5.08C101.102 6.25333 101.462 7.58667 101.462 9.08C101.462 10.0667 101.315 10.96 101.022 11.76C100.729 12.5333 100.382 13.2 99.982 13.76C99.582 14.2933 99.222 14.6933 98.902 14.96C100.342 16.56 101.062 18.44 101.062 20.6L101.102 28.8C101.102 28.9333 101.035 29 100.902 29H96.382C96.2754 29 96.222 28.96 96.222 28.88V20.6C96.222 19.64 95.8754 18.8133 95.182 18.12C94.5154 17.4 93.6887 17.04 92.702 17.04H90.062L90.022 28.8C90.022 28.9333 89.9687 29 89.862 29H85.342ZM90.062 12.24H93.502C94.3287 12.24 95.062 11.9333 95.702 11.32C96.342 10.7067 96.662 9.96 96.662 9.08C96.662 8.22667 96.342 7.49333 95.702 6.88C95.0887 6.26667 94.3554 5.96 93.502 5.96H90.062V12.24ZM104.679 29C104.546 29 104.479 28.9333 104.479 28.8L104.519 1.32C104.519 1.21333 104.572 1.16 104.679 1.16H109.159C109.266 1.16 109.319 1.21333 109.319 1.32L109.359 28.8C109.359 28.9333 109.306 29 109.199 29H104.679ZM113.077 29C112.944 29 112.877 28.9333 112.877 28.8L112.957 1.32C112.957 1.21333 113.011 1.16 113.117 1.16L120.597 1.12C122.064 1.09333 123.397 1.44 124.597 2.16C125.824 2.88 126.797 3.85333 127.517 5.08C128.237 6.28 128.597 7.61333 128.597 9.08V20.56C128.597 22.1067 128.224 23.52 127.477 24.8C126.731 26.0533 125.731 27.0533 124.477 27.8C123.224 28.5467 121.811 28.9333 120.237 28.96L113.077 29ZM117.757 24.08H120.237C121.224 24.08 122.051 23.7333 122.717 23.04C123.411 22.3467 123.757 21.52 123.757 20.56V9.04C123.757 8.18667 123.437 7.45333 122.797 6.84C122.184 6.2 121.451 5.89333 120.597 5.92L117.797 5.96L117.757 24.08ZM138.088 29.4C136.648 29.4 135.341 29.04 134.168 28.32C132.995 27.6 132.048 26.64 131.328 25.44C130.635 24.2133 130.288 22.8533 130.288 21.36V8.68C130.288 7.24 130.635 5.92 131.328 4.72C132.048 3.49333 132.995 2.52 134.168 1.8C135.368 1.08 136.675 0.719999 138.088 0.719999C139.555 0.719999 140.875 1.08 142.048 1.8C143.248 2.49333 144.195 3.44 144.888 4.64C145.581 5.84 145.928 7.18667 145.928 8.68V10.52C145.928 10.6267 145.861 10.68 145.728 10.68H141.248C141.141 10.68 141.088 10.6267 141.088 10.52V9C141.088 7.98667 140.795 7.14667 140.208 6.48C139.648 5.81333 138.941 5.48 138.088 5.48C137.315 5.48 136.621 5.8 136.008 6.44C135.421 7.08 135.128 7.82667 135.128 8.68V21.36C135.128 22.24 135.421 23 136.008 23.64C136.595 24.2533 137.288 24.56 138.088 24.56C138.941 24.56 139.648 24.2533 140.208 23.64C140.795 23.0267 141.088 22.2667 141.088 21.36V19.4H138.288C138.155 19.4 138.088 19.3333 138.088 19.2V14.72C138.088 14.5867 138.155 14.52 138.288 14.52H145.768C145.875 14.52 145.928 14.5867 145.928 14.72V21.36C145.928 22.8533 145.568 24.2133 144.848 25.44C144.155 26.64 143.221 27.6 142.048 28.32C140.875 29.04 139.555 29.4 138.088 29.4ZM148.936 29C148.829 29 148.776 28.9333 148.776 28.8L148.816 1.32C148.816 1.21333 148.869 1.16 148.976 1.16H161.816C161.922 1.16 161.976 1.22667 161.976 1.36V5.84C161.976 5.94666 161.922 6 161.816 6H153.616V12.24H161.816C161.922 12.24 161.976 12.2933 161.976 12.4L162.016 16.92C162.016 17.0267 161.962 17.08 161.856 17.08H153.616V24.08H161.856C161.962 24.08 162.016 24.1467 162.016 24.28V28.84C162.016 28.9467 161.962 29 161.856 29H148.936Z" fill="white"/>
<path d="M72 43H146" stroke="white" stroke-width="5"/>
<path d="M149.784 43.0757L164.47 43.0843" stroke="#EB018A" stroke-width="5"/>
</svg>
