<svg width="229" height="43" viewBox="0 0 229 43" fill="none" xmlns="http://www.w3.org/2000/svg">
<path d="M35.4406 29C35.3073 29 35.2406 28.9333 35.2406 28.8L35.3206 1.32C35.3206 1.21333 35.374 1.16 35.4806 1.16L42.9606 1.12C44.4273 1.09333 45.7606 1.44 46.9606 2.16C48.1873 2.88 49.1606 3.85333 49.8806 5.08C50.6006 6.28 50.9606 7.61333 50.9606 9.08V20.56C50.9606 22.1067 50.5873 23.52 49.8406 24.8C49.094 26.0533 48.094 27.0533 46.8406 27.8C45.5873 28.5467 44.174 28.9333 42.6006 28.96L35.4406 29ZM40.1206 24.08H42.6006C43.5873 24.08 44.414 23.7333 45.0806 23.04C45.774 22.3467 46.1206 21.52 46.1206 20.56V9.04C46.1206 8.18667 45.8006 7.45333 45.1606 6.84C44.5473 6.2 43.814 5.89333 42.9606 5.92L40.1606 5.96L40.1206 24.08ZM51.5369 28.8L56.4969 1.32C56.5235 1.21333 56.5902 1.16 56.6969 1.16H62.4969C62.6035 1.16 62.6702 1.21333 62.6969 1.32L67.4569 28.8C67.4835 28.9333 67.4302 29 67.2969 29H62.8569C62.7502 29 62.6835 28.9333 62.6569 28.8L62.2169 25.88H56.7769L56.3369 28.8C56.3102 28.9333 56.2435 29 56.1369 29H51.6969C51.5902 29 51.5369 28.9333 51.5369 28.8ZM57.5769 21.6H61.4169L59.7769 10.36L59.5369 8.88L59.3769 10.36L57.5769 21.6ZM75.9859 29.4C74.5459 29.4 73.2259 29.04 72.0259 28.32C70.8526 27.5733 69.9059 26.6 69.1859 25.4C68.4926 24.1733 68.1459 22.8267 68.1459 21.36V19.52C68.1459 19.3867 68.2126 19.32 68.3459 19.32H72.8259C72.9326 19.32 72.9859 19.3867 72.9859 19.52V21.36C72.9859 22.24 73.2793 23 73.8659 23.64C74.4526 24.2533 75.1593 24.56 75.9859 24.56C76.8126 24.56 77.5193 24.24 78.1059 23.6C78.6926 22.96 78.9859 22.2133 78.9859 21.36C78.9859 20.3733 78.3459 19.52 77.0659 18.8C76.6393 18.56 75.9726 18.1867 75.0659 17.68C74.1593 17.1733 73.3059 16.6933 72.5059 16.24C71.0393 15.3867 69.9459 14.32 69.2259 13.04C68.5326 11.7333 68.1859 10.2667 68.1859 8.64C68.1859 7.14667 68.5459 5.81333 69.2659 4.64C69.9859 3.44 70.9326 2.49333 72.1059 1.8C73.3059 1.10667 74.5993 0.759999 75.9859 0.759999C77.3993 0.759999 78.6926 1.12 79.8659 1.84C81.0659 2.53333 82.0126 3.48 82.7059 4.68C83.4259 5.85333 83.7859 7.17333 83.7859 8.64V11.92C83.7859 12.0267 83.7326 12.08 83.6259 12.08H79.1459C79.0393 12.08 78.9859 12.0267 78.9859 11.92L78.9459 8.64C78.9459 7.70667 78.6526 6.94667 78.0659 6.36C77.4793 5.77333 76.7859 5.48 75.9859 5.48C75.1593 5.48 74.4526 5.8 73.8659 6.44C73.2793 7.05333 72.9859 7.78667 72.9859 8.64C72.9859 9.52 73.1726 10.2533 73.5459 10.84C73.9193 11.4267 74.5993 11.9867 75.5859 12.52C75.7193 12.6 75.9726 12.7467 76.3459 12.96C76.7459 13.1467 77.1726 13.3733 77.6259 13.64C78.0793 13.88 78.4793 14.0933 78.8259 14.28C79.1993 14.4667 79.4259 14.5867 79.5059 14.64C80.8393 15.3867 81.8926 16.3067 82.6659 17.4C83.4393 18.4667 83.8259 19.7867 83.8259 21.36C83.8259 22.88 83.4659 24.2533 82.7459 25.48C82.0526 26.68 81.1059 27.64 79.9059 28.36C78.7326 29.0533 77.4259 29.4 75.9859 29.4ZM86.7678 29C86.6611 29 86.6078 28.9333 86.6078 28.8L86.6478 1.32C86.6478 1.21333 86.7145 1.16 86.8478 1.16H91.2878C91.4211 1.16 91.4878 1.21333 91.4878 1.32L91.4478 12.2H97.4478V1.32C97.4478 1.21333 97.5011 1.16 97.6078 1.16H102.048C102.181 1.16 102.248 1.21333 102.248 1.32L102.328 28.8C102.328 28.9333 102.261 29 102.128 29H97.6478C97.5145 29 97.4478 28.9333 97.4478 28.8V17.04H91.4478V28.8C91.4478 28.9333 91.3945 29 91.2878 29H86.7678ZM105.752 29C105.646 29 105.592 28.9333 105.592 28.8L105.672 1.32C105.672 1.21333 105.726 1.16 105.832 1.16H113.512C115.032 1.16 116.392 1.53333 117.592 2.28C118.792 3 119.739 3.96 120.432 5.16C121.126 6.36 121.472 7.66667 121.472 9.08C121.472 10.2267 121.206 11.2933 120.672 12.28C120.166 13.2667 119.552 14.0667 118.832 14.68C119.606 15.4533 120.206 16.3467 120.632 17.36C121.059 18.3733 121.272 19.44 121.272 20.56C121.272 22.1067 120.899 23.52 120.152 24.8C119.406 26.08 118.392 27.1067 117.112 27.88C115.859 28.6267 114.459 29 112.912 29H105.752ZM110.472 12.2H113.512C114.446 12.2 115.192 11.88 115.752 11.24C116.339 10.5733 116.632 9.85333 116.632 9.08C116.632 8.22667 116.326 7.49333 115.712 6.88C115.099 6.24 114.366 5.92 113.512 5.92H110.472V12.2ZM110.432 24.12H112.912C113.872 24.12 114.699 23.7733 115.392 23.08C116.086 22.36 116.432 21.52 116.432 20.56C116.432 19.6 116.086 18.7733 115.392 18.08C114.699 17.3867 113.872 17.04 112.912 17.04H110.472L110.432 24.12ZM131.547 29.4C130.107 29.4 128.787 29.04 127.587 28.32C126.414 27.5733 125.467 26.6 124.747 25.4C124.027 24.1733 123.667 22.8267 123.667 21.36L123.707 8.68C123.707 7.21333 124.054 5.88 124.747 4.68C125.467 3.48 126.427 2.52 127.627 1.8C128.827 1.08 130.134 0.719999 131.547 0.719999C132.987 0.719999 134.294 1.08 135.467 1.8C136.64 2.52 137.574 3.48 138.267 4.68C138.987 5.88 139.347 7.21333 139.347 8.68L139.387 21.36C139.387 22.8267 139.027 24.1733 138.307 25.4C137.614 26.6 136.667 27.5733 135.467 28.32C134.294 29.04 132.987 29.4 131.547 29.4ZM131.547 24.56C132.347 24.56 133.04 24.24 133.627 23.6C134.24 22.9333 134.547 22.1867 134.547 21.36L134.507 8.68C134.507 7.8 134.227 7.05333 133.667 6.44C133.107 5.82667 132.4 5.52 131.547 5.52C130.72 5.52 130.014 5.82667 129.427 6.44C128.84 7.02667 128.547 7.77333 128.547 8.68V21.36C128.547 22.24 128.84 23 129.427 23.64C130.014 24.2533 130.72 24.56 131.547 24.56ZM140.365 28.8L145.325 1.32C145.352 1.21333 145.418 1.16 145.525 1.16H151.325C151.432 1.16 151.498 1.21333 151.525 1.32L156.285 28.8C156.312 28.9333 156.258 29 156.125 29H151.685C151.578 29 151.512 28.9333 151.485 28.8L151.045 25.88H145.605L145.165 28.8C145.138 28.9333 145.072 29 144.965 29H140.525C140.418 29 140.365 28.9333 140.365 28.8ZM146.405 21.6H150.245L148.605 10.36L148.365 8.88L148.205 10.36L146.405 21.6ZM158.955 29C158.849 29 158.795 28.9333 158.795 28.8L158.875 1.32C158.875 1.21333 158.929 1.16 159.035 1.16H167.115C168.555 1.16 169.875 1.52 171.075 2.24C172.302 2.93333 173.275 3.88 173.995 5.08C174.715 6.25333 175.075 7.58667 175.075 9.08C175.075 10.0667 174.929 10.96 174.635 11.76C174.342 12.5333 173.995 13.2 173.595 13.76C173.195 14.2933 172.835 14.6933 172.515 14.96C173.955 16.56 174.675 18.44 174.675 20.6L174.715 28.8C174.715 28.9333 174.649 29 174.515 29H169.995C169.889 29 169.835 28.96 169.835 28.88V20.6C169.835 19.64 169.489 18.8133 168.795 18.12C168.129 17.4 167.302 17.04 166.315 17.04H163.675L163.635 28.8C163.635 28.9333 163.582 29 163.475 29H158.955ZM163.675 12.24H167.115C167.942 12.24 168.675 11.9333 169.315 11.32C169.955 10.7067 170.275 9.96 170.275 9.08C170.275 8.22667 169.955 7.49333 169.315 6.88C168.702 6.26667 167.969 5.96 167.115 5.96H163.675V12.24ZM178.292 29C178.159 29 178.092 28.9333 178.092 28.8L178.172 1.32C178.172 1.21333 178.226 1.16 178.332 1.16L185.812 1.12C187.279 1.09333 188.612 1.44 189.812 2.16C191.039 2.88 192.012 3.85333 192.732 5.08C193.452 6.28 193.812 7.61333 193.812 9.08V20.56C193.812 22.1067 193.439 23.52 192.692 24.8C191.946 26.0533 190.946 27.0533 189.692 27.8C188.439 28.5467 187.026 28.9333 185.452 28.96L178.292 29ZM182.972 24.08H185.452C186.439 24.08 187.266 23.7333 187.932 23.04C188.626 22.3467 188.972 21.52 188.972 20.56V9.04C188.972 8.18667 188.652 7.45333 188.012 6.84C187.399 6.2 186.666 5.89333 185.812 5.92L183.012 5.96L182.972 24.08Z" fill="white"/>
<path d="M36 40L173.527 40.2388" stroke="white" stroke-width="5"/>
<path d="M178.24 40.3237L194.71 40.3231" stroke="#EB018A" stroke-width="5"/>
</svg>
