<svg width="1003" height="353" viewBox="0 0 1003 353" fill="none" xmlns="http://www.w3.org/2000/svg">
<path d="M402.014 105.52L413.918 39.568C413.982 39.312 414.142 39.184 414.398 39.184H428.318C428.574 39.184 428.734 39.312 428.798 39.568L440.222 105.52C440.286 105.84 440.158 106 439.838 106H429.182C428.926 106 428.766 105.84 428.702 105.52L427.646 98.512H414.59L413.534 105.52C413.47 105.84 413.31 106 413.054 106H402.398C402.142 106 402.014 105.84 402.014 105.52ZM416.51 88.24H425.726L421.79 61.264L421.214 57.712L420.83 61.264L416.51 88.24ZM441.395 106C441.139 106 441.043 105.84 441.107 105.52L452.051 71.248L441.299 39.568C441.235 39.312 441.331 39.184 441.587 39.184H452.339C452.659 39.184 452.851 39.312 452.915 39.568L459.347 62.416L465.875 39.568C465.939 39.312 466.131 39.184 466.451 39.184H477.107C477.363 39.184 477.459 39.312 477.395 39.568L466.643 71.152L477.491 105.52C477.619 105.84 477.523 106 477.203 106H466.451C466.195 106 466.003 105.84 465.875 105.52L459.347 80.752L452.723 105.52C452.659 105.84 452.467 106 452.147 106H441.395ZM497.756 106.96C494.3 106.96 491.132 106.096 488.252 104.368C485.436 102.576 483.164 100.24 481.436 97.36C479.708 94.416 478.844 91.184 478.844 87.664L478.94 57.232C478.94 53.712 479.772 50.512 481.436 47.632C483.164 44.752 485.468 42.448 488.348 40.72C491.228 38.992 494.364 38.128 497.756 38.128C501.212 38.128 504.348 38.992 507.164 40.72C509.98 42.448 512.22 44.752 513.884 47.632C515.612 50.512 516.476 53.712 516.476 57.232L516.572 87.664C516.572 91.184 515.708 94.416 513.98 97.36C512.316 100.24 510.044 102.576 507.164 104.368C504.348 106.096 501.212 106.96 497.756 106.96ZM497.756 95.344C499.676 95.344 501.34 94.576 502.748 93.04C504.22 91.44 504.956 89.648 504.956 87.664L504.86 57.232C504.86 55.12 504.188 53.328 502.844 51.856C501.5 50.384 499.804 49.648 497.756 49.648C495.772 49.648 494.076 50.384 492.668 51.856C491.26 53.264 490.556 55.056 490.556 57.232V87.664C490.556 89.776 491.26 91.6 492.668 93.136C494.076 94.608 495.772 95.344 497.756 95.344ZM524.735 106C524.223 106 523.967 105.776 523.967 105.328L523.871 39.952C523.871 39.44 524.127 39.184 524.639 39.184H533.279L549.503 77.008L549.023 39.952C549.023 39.44 549.311 39.184 549.887 39.184H559.391C559.775 39.184 559.967 39.44 559.967 39.952L560.063 105.424C560.063 105.808 559.903 106 559.583 106H551.135L534.527 70.672L535.199 105.232C535.199 105.744 534.911 106 534.335 106H524.735Z" fill="white"/>
<path d="M368.49 183C368.234 183 368.106 182.84 368.106 182.52L368.298 116.568C368.298 116.312 368.426 116.184 368.682 116.184H387.114C390.762 116.184 394.026 117.08 396.906 118.872C399.786 120.6 402.058 122.904 403.722 125.784C405.386 128.664 406.218 131.8 406.218 135.192C406.218 137.944 405.578 140.504 404.298 142.872C403.082 145.24 401.61 147.16 399.882 148.632C401.738 150.488 403.178 152.632 404.202 155.064C405.226 157.496 405.738 160.056 405.738 162.744C405.738 166.456 404.842 169.848 403.05 172.92C401.258 175.992 398.826 178.456 395.754 180.312C392.746 182.104 389.386 183 385.674 183H368.49ZM379.818 142.68H387.114C389.354 142.68 391.146 141.912 392.49 140.376C393.898 138.776 394.602 137.048 394.602 135.192C394.602 133.144 393.866 131.384 392.394 129.912C390.922 128.376 389.162 127.608 387.114 127.608H379.818V142.68ZM379.722 171.288H385.674C387.978 171.288 389.962 170.456 391.626 168.792C393.29 167.064 394.122 165.048 394.122 162.744C394.122 160.44 393.29 158.456 391.626 156.792C389.962 155.128 387.978 154.296 385.674 154.296H379.818L379.722 171.288ZM413.021 183C412.765 183 412.637 182.84 412.637 182.52L412.829 116.568C412.829 116.312 412.957 116.184 413.213 116.184H432.605C436.061 116.184 439.229 117.048 442.109 118.776C445.053 120.44 447.389 122.712 449.117 125.592C450.845 128.408 451.709 131.608 451.709 135.192C451.709 137.56 451.357 139.704 450.653 141.624C449.949 143.48 449.117 145.08 448.157 146.424C447.197 147.704 446.333 148.664 445.565 149.304C449.021 153.144 450.749 157.656 450.749 162.84L450.845 182.52C450.845 182.84 450.685 183 450.365 183H439.517C439.261 183 439.133 182.904 439.133 182.712V162.84C439.133 160.536 438.301 158.552 436.637 156.888C435.037 155.16 433.053 154.296 430.685 154.296H424.349L424.253 182.52C424.253 182.84 424.125 183 423.869 183H413.021ZM424.349 142.776H432.605C434.589 142.776 436.349 142.04 437.885 140.568C439.421 139.096 440.189 137.304 440.189 135.192C440.189 133.144 439.421 131.384 437.885 129.912C436.413 128.44 434.653 127.704 432.605 127.704H424.349V142.776ZM459.429 183C459.109 183 458.949 182.84 458.949 182.52L459.045 116.568C459.045 116.312 459.173 116.184 459.429 116.184H470.181C470.437 116.184 470.565 116.312 470.565 116.568L470.661 182.52C470.661 182.84 470.533 183 470.277 183H459.429ZM479.586 183C479.266 183 479.106 182.84 479.106 182.52L479.298 116.568C479.298 116.312 479.426 116.184 479.682 116.184L497.634 116.088C501.154 116.024 504.354 116.856 507.234 118.584C510.178 120.312 512.514 122.648 514.242 125.592C515.97 128.472 516.834 131.672 516.834 135.192V162.744C516.834 166.456 515.938 169.848 514.146 172.92C512.354 175.928 509.954 178.328 506.946 180.12C503.938 181.912 500.546 182.84 496.77 182.904L479.586 183ZM490.818 171.192H496.77C499.138 171.192 501.122 170.36 502.722 168.696C504.386 167.032 505.218 165.048 505.218 162.744V135.096C505.218 133.048 504.45 131.288 502.914 129.816C501.442 128.28 499.682 127.544 497.634 127.608L490.914 127.704L490.818 171.192ZM539.611 183.96C536.155 183.96 533.019 183.096 530.203 181.368C527.387 179.64 525.115 177.336 523.387 174.456C521.723 171.512 520.891 168.248 520.891 164.664V134.232C520.891 130.776 521.723 127.608 523.387 124.728C525.115 121.784 527.387 119.448 530.203 117.72C533.083 115.992 536.219 115.128 539.611 115.128C543.131 115.128 546.299 115.992 549.115 117.72C551.995 119.384 554.267 121.656 555.931 124.536C557.595 127.416 558.427 130.648 558.427 134.232V138.648C558.427 138.904 558.267 139.032 557.947 139.032H547.195C546.939 139.032 546.811 138.904 546.811 138.648V135C546.811 132.568 546.107 130.552 544.699 128.952C543.355 127.352 541.659 126.552 539.611 126.552C537.755 126.552 536.091 127.32 534.619 128.856C533.211 130.392 532.507 132.184 532.507 134.232V164.664C532.507 166.776 533.211 168.6 534.619 170.136C536.027 171.608 537.691 172.344 539.611 172.344C541.659 172.344 543.355 171.608 544.699 170.136C546.107 168.664 546.811 166.84 546.811 164.664V159.96H540.091C539.771 159.96 539.611 159.8 539.611 159.48V148.728C539.611 148.408 539.771 148.248 540.091 148.248H558.043C558.299 148.248 558.427 148.408 558.427 148.728V164.664C558.427 168.248 557.563 171.512 555.835 174.456C554.171 177.336 551.931 179.64 549.115 181.368C546.299 183.096 543.131 183.96 539.611 183.96ZM565.646 183C565.39 183 565.262 182.84 565.262 182.52L565.358 116.568C565.358 116.312 565.486 116.184 565.742 116.184H596.558C596.814 116.184 596.942 116.344 596.942 116.664V127.416C596.942 127.672 596.814 127.8 596.558 127.8H576.878V142.776H596.558C596.814 142.776 596.942 142.904 596.942 143.16L597.038 154.008C597.038 154.264 596.91 154.392 596.654 154.392H576.878V171.192H596.654C596.91 171.192 597.038 171.352 597.038 171.672V182.616C597.038 182.872 596.91 183 596.654 183H565.646Z" fill="#EB018A"/>
<line x1="0.5" y1="1" x2="0.5" y2="170" stroke="white"/>
<line y1="0.5" x2="169" y2="0.5" stroke="white"/>
<line x1="1002.5" y1="352" x2="1002.5" y2="183" stroke="#EB018A"/>
<line x1="1003" y1="352.5" x2="834" y2="352.5" stroke="#EB018A"/>
</svg>
