<svg width="179" height="57" viewBox="0 0 179 57" fill="none" xmlns="http://www.w3.org/2000/svg">
<path d="M47.3195 37.75L53.5195 3.4C53.5529 3.26666 53.6362 3.2 53.7695 3.2H61.0195C61.1529 3.2 61.2362 3.26666 61.2695 3.4L67.2195 37.75C67.2529 37.9167 67.1862 38 67.0195 38H61.4695C61.3362 38 61.2529 37.9167 61.2195 37.75L60.6695 34.1H53.8695L53.3195 37.75C53.2862 37.9167 53.2029 38 53.0695 38H47.5195C47.3862 38 47.3195 37.9167 47.3195 37.75ZM54.8695 28.75H59.6695L57.6195 14.7L57.3195 12.85L57.1195 14.7L54.8695 28.75ZM67.8309 38C67.6975 38 67.6475 37.9167 67.6809 37.75L73.3809 19.9L67.7809 3.4C67.7475 3.26666 67.7975 3.2 67.9309 3.2H73.5309C73.6975 3.2 73.7975 3.26666 73.8309 3.4L77.1809 15.3L80.5809 3.4C80.6142 3.26666 80.7142 3.2 80.8809 3.2H86.4309C86.5642 3.2 86.6142 3.26666 86.5809 3.4L80.9809 19.85L86.6309 37.75C86.6975 37.9167 86.6475 38 86.4809 38H80.8809C80.7475 38 80.6475 37.9167 80.5809 37.75L77.1809 24.85L73.7309 37.75C73.6975 37.9167 73.5975 38 73.4309 38H67.8309ZM97.1855 38.5C95.3855 38.5 93.7355 38.05 92.2355 37.15C90.7689 36.2167 89.5855 35 88.6855 33.5C87.7855 31.9667 87.3355 30.2833 87.3355 28.45L87.3855 12.6C87.3855 10.7667 87.8189 9.1 88.6855 7.6C89.5855 6.1 90.7855 4.9 92.2855 4C93.7855 3.1 95.4189 2.65 97.1855 2.65C98.9855 2.65 100.619 3.1 102.086 4C103.552 4.9 104.719 6.1 105.586 7.6C106.486 9.1 106.936 10.7667 106.936 12.6L106.986 28.45C106.986 30.2833 106.536 31.9667 105.636 33.5C104.769 35 103.586 36.2167 102.086 37.15C100.619 38.05 98.9855 38.5 97.1855 38.5ZM97.1855 32.45C98.1855 32.45 99.0522 32.05 99.7855 31.25C100.552 30.4167 100.936 29.4833 100.936 28.45L100.886 12.6C100.886 11.5 100.536 10.5667 99.8355 9.8C99.1355 9.03333 98.2522 8.65 97.1855 8.65C96.1522 8.65 95.2689 9.03333 94.5355 9.8C93.8022 10.5333 93.4355 11.4667 93.4355 12.6V28.45C93.4355 29.55 93.8022 30.5 94.5355 31.3C95.2689 32.0667 96.1522 32.45 97.1855 32.45ZM111.237 38C110.97 38 110.837 37.8833 110.837 37.65L110.787 3.6C110.787 3.33333 110.92 3.2 111.187 3.2H115.687L124.137 22.9L123.887 3.6C123.887 3.33333 124.037 3.2 124.337 3.2H129.287C129.487 3.2 129.587 3.33333 129.587 3.6L129.637 37.7C129.637 37.9 129.554 38 129.387 38H124.987L116.337 19.6L116.687 37.6C116.687 37.8667 116.537 38 116.237 38H111.237Z" fill="white"/>
<path d="M33.1931 53.9155H128.205" stroke="white" stroke-width="5"/>
<path d="M131.888 53.9574L144.762 53.9572" stroke="#EB018A" stroke-width="5"/>
</svg>
