<svg width="769" height="1852" viewBox="0 0 769 1852" fill="none" xmlns="http://www.w3.org/2000/svg">
<line x1="410.5" y1="566" x2="410.5" y2="1286" stroke="#EB018A"/>
<line x1="285" y1="823.5" x2="410.004" y2="823.5" stroke="white"/>
<path d="M484.911 743C484.697 743 484.591 742.867 484.591 742.6L484.751 687.64C484.751 687.427 484.857 687.32 485.071 687.32H500.431C503.471 687.32 506.191 688.067 508.591 689.56C510.991 691 512.884 692.92 514.271 695.32C515.657 697.72 516.351 700.333 516.351 703.16C516.351 705.453 515.817 707.587 514.751 709.56C513.737 711.533 512.511 713.133 511.071 714.36C512.617 715.907 513.817 717.693 514.671 719.72C515.524 721.747 515.951 723.88 515.951 726.12C515.951 729.213 515.204 732.04 513.711 734.6C512.217 737.16 510.191 739.213 507.631 740.76C505.124 742.253 502.324 743 499.231 743H484.911ZM494.351 709.4H500.431C502.297 709.4 503.791 708.76 504.911 707.48C506.084 706.147 506.671 704.707 506.671 703.16C506.671 701.453 506.057 699.987 504.831 698.76C503.604 697.48 502.137 696.84 500.431 696.84H494.351V709.4ZM494.271 733.24H499.231C501.151 733.24 502.804 732.547 504.191 731.16C505.577 729.72 506.271 728.04 506.271 726.12C506.271 724.2 505.577 722.547 504.191 721.16C502.804 719.773 501.151 719.08 499.231 719.08H494.351L494.271 733.24ZM522.02 743C521.807 743 521.7 742.867 521.7 742.6L521.86 687.64C521.86 687.427 521.967 687.32 522.18 687.32H538.34C541.22 687.32 543.86 688.04 546.26 689.48C548.713 690.867 550.66 692.76 552.1 695.16C553.54 697.507 554.26 700.173 554.26 703.16C554.26 705.133 553.967 706.92 553.38 708.52C552.793 710.067 552.1 711.4 551.3 712.52C550.5 713.587 549.78 714.387 549.14 714.92C552.02 718.12 553.46 721.88 553.46 726.2L553.54 742.6C553.54 742.867 553.407 743 553.14 743H544.1C543.887 743 543.78 742.92 543.78 742.76V726.2C543.78 724.28 543.087 722.627 541.7 721.24C540.367 719.8 538.713 719.08 536.74 719.08H531.46L531.38 742.6C531.38 742.867 531.273 743 531.06 743H522.02ZM531.46 709.48H538.34C539.993 709.48 541.46 708.867 542.74 707.64C544.02 706.413 544.66 704.92 544.66 703.16C544.66 701.453 544.02 699.987 542.74 698.76C541.513 697.533 540.047 696.92 538.34 696.92H531.46V709.48ZM560.694 743C560.427 743 560.294 742.867 560.294 742.6L560.374 687.64C560.374 687.427 560.48 687.32 560.694 687.32H569.654C569.867 687.32 569.974 687.427 569.974 687.64L570.054 742.6C570.054 742.867 569.947 743 569.734 743H560.694ZM577.491 743C577.224 743 577.091 742.867 577.091 742.6L577.251 687.64C577.251 687.427 577.357 687.32 577.571 687.32L592.531 687.24C595.464 687.187 598.131 687.88 600.531 689.32C602.984 690.76 604.931 692.707 606.371 695.16C607.811 697.56 608.531 700.227 608.531 703.16V726.12C608.531 729.213 607.784 732.04 606.291 734.6C604.797 737.107 602.797 739.107 600.291 740.6C597.784 742.093 594.957 742.867 591.811 742.92L577.491 743ZM586.851 733.16H591.811C593.784 733.16 595.437 732.467 596.771 731.08C598.157 729.693 598.851 728.04 598.851 726.12V703.08C598.851 701.373 598.211 699.907 596.931 698.68C595.704 697.4 594.237 696.787 592.531 696.84L586.931 696.92L586.851 733.16ZM627.512 743.8C624.632 743.8 622.019 743.08 619.672 741.64C617.325 740.2 615.432 738.28 613.992 735.88C612.605 733.427 611.912 730.707 611.912 727.72V702.36C611.912 699.48 612.605 696.84 613.992 694.44C615.432 691.987 617.325 690.04 619.672 688.6C622.072 687.16 624.685 686.44 627.512 686.44C630.445 686.44 633.085 687.16 635.432 688.6C637.832 689.987 639.725 691.88 641.112 694.28C642.499 696.68 643.192 699.373 643.192 702.36V706.04C643.192 706.253 643.059 706.36 642.792 706.36H633.832C633.619 706.36 633.512 706.253 633.512 706.04V703C633.512 700.973 632.925 699.293 631.752 697.96C630.632 696.627 629.219 695.96 627.512 695.96C625.965 695.96 624.579 696.6 623.352 697.88C622.179 699.16 621.592 700.653 621.592 702.36V727.72C621.592 729.48 622.179 731 623.352 732.28C624.525 733.507 625.912 734.12 627.512 734.12C629.219 734.12 630.632 733.507 631.752 732.28C632.925 731.053 633.512 729.533 633.512 727.72V723.8H627.912C627.645 723.8 627.512 723.667 627.512 723.4V714.44C627.512 714.173 627.645 714.04 627.912 714.04H642.872C643.085 714.04 643.192 714.173 643.192 714.44V727.72C643.192 730.707 642.472 733.427 641.032 735.88C639.645 738.28 637.779 740.2 635.432 741.64C633.085 743.08 630.445 743.8 627.512 743.8ZM649.288 743C649.021 743 648.888 742.867 648.888 742.6L648.968 687.64C648.968 687.427 649.074 687.32 649.288 687.32H658.248C658.461 687.32 658.568 687.427 658.568 687.64L658.648 742.6C658.648 742.867 658.541 743 658.328 743H649.288ZM666.404 743C665.978 743 665.764 742.813 665.764 742.44L665.684 687.96C665.684 687.533 665.898 687.32 666.324 687.32H673.524L687.044 718.84L686.644 687.96C686.644 687.533 686.884 687.32 687.364 687.32H695.284C695.604 687.32 695.764 687.533 695.764 687.96L695.844 742.52C695.844 742.84 695.711 743 695.444 743H688.404L674.564 713.56L675.124 742.36C675.124 742.787 674.884 743 674.404 743H666.404ZM717.434 743.8C714.554 743.8 711.94 743.08 709.594 741.64C707.247 740.2 705.354 738.28 703.914 735.88C702.527 733.427 701.834 730.707 701.834 727.72V702.36C701.834 699.48 702.527 696.84 703.914 694.44C705.354 691.987 707.247 690.04 709.594 688.6C711.994 687.16 714.607 686.44 717.434 686.44C720.367 686.44 723.007 687.16 725.354 688.6C727.754 689.987 729.647 691.88 731.034 694.28C732.42 696.68 733.114 699.373 733.114 702.36V706.04C733.114 706.253 732.98 706.36 732.714 706.36H723.754C723.54 706.36 723.434 706.253 723.434 706.04V703C723.434 700.973 722.847 699.293 721.674 697.96C720.554 696.627 719.14 695.96 717.434 695.96C715.887 695.96 714.5 696.6 713.274 697.88C712.1 699.16 711.514 700.653 711.514 702.36V727.72C711.514 729.48 712.1 731 713.274 732.28C714.447 733.507 715.834 734.12 717.434 734.12C719.14 734.12 720.554 733.507 721.674 732.28C722.847 731.053 723.434 729.533 723.434 727.72V723.8H717.834C717.567 723.8 717.434 723.667 717.434 723.4V714.44C717.434 714.173 717.567 714.04 717.834 714.04H732.794C733.007 714.04 733.114 714.173 733.114 714.44V727.72C733.114 730.707 732.394 733.427 730.954 735.88C729.567 738.28 727.7 740.2 725.354 741.64C723.007 743.08 720.367 743.8 717.434 743.8Z" fill="white"/>
<path d="M506 769H696.081" stroke="white" stroke-width="9"/>
<path d="M706 769H730.617" stroke="#EB018A" stroke-width="9"/>
<path d="M23.1284 1254.6L33.0484 1199.64C33.1018 1199.43 33.2351 1199.32 33.4484 1199.32H45.0484C45.2618 1199.32 45.3951 1199.43 45.4484 1199.64L54.9684 1254.6C55.0218 1254.87 54.9151 1255 54.6484 1255H45.7684C45.5551 1255 45.4218 1254.87 45.3684 1254.6L44.4884 1248.76H33.6084L32.7284 1254.6C32.6751 1254.87 32.5418 1255 32.3284 1255H23.4484C23.2351 1255 23.1284 1254.87 23.1284 1254.6ZM35.2084 1240.2H42.8884L39.6084 1217.72L39.1284 1214.76L38.8084 1217.72L35.2084 1240.2ZM55.9466 1255C55.7332 1255 55.6532 1254.87 55.7066 1254.6L64.8266 1226.04L55.8666 1199.64C55.8132 1199.43 55.8932 1199.32 56.1066 1199.32H65.0666C65.3332 1199.32 65.4932 1199.43 65.5466 1199.64L70.9066 1218.68L76.3466 1199.64C76.3999 1199.43 76.5599 1199.32 76.8266 1199.32H85.7066C85.9199 1199.32 85.9999 1199.43 85.9466 1199.64L76.9866 1225.96L86.0266 1254.6C86.1332 1254.87 86.0532 1255 85.7866 1255H76.8266C76.6132 1255 76.4532 1254.87 76.3466 1254.6L70.9066 1233.96L65.3866 1254.6C65.3332 1254.87 65.1732 1255 64.9066 1255H55.9466ZM102.914 1255.8C100.034 1255.8 97.3941 1255.08 94.9941 1253.64C92.6474 1252.15 90.7541 1250.2 89.3141 1247.8C87.8741 1245.35 87.1541 1242.65 87.1541 1239.72L87.2341 1214.36C87.2341 1211.43 87.9274 1208.76 89.3141 1206.36C90.7541 1203.96 92.6741 1202.04 95.0741 1200.6C97.4741 1199.16 100.087 1198.44 102.914 1198.44C105.794 1198.44 108.407 1199.16 110.754 1200.6C113.101 1202.04 114.967 1203.96 116.354 1206.36C117.794 1208.76 118.514 1211.43 118.514 1214.36L118.594 1239.72C118.594 1242.65 117.874 1245.35 116.434 1247.8C115.047 1250.2 113.154 1252.15 110.754 1253.64C108.407 1255.08 105.794 1255.8 102.914 1255.8ZM102.914 1246.12C104.514 1246.12 105.901 1245.48 107.074 1244.2C108.301 1242.87 108.914 1241.37 108.914 1239.72L108.834 1214.36C108.834 1212.6 108.274 1211.11 107.154 1209.88C106.034 1208.65 104.621 1208.04 102.914 1208.04C101.261 1208.04 99.8474 1208.65 98.6741 1209.88C97.5007 1211.05 96.9141 1212.55 96.9141 1214.36V1239.72C96.9141 1241.48 97.5007 1243 98.6741 1244.28C99.8474 1245.51 101.261 1246.12 102.914 1246.12ZM125.397 1255C124.97 1255 124.757 1254.81 124.757 1254.44L124.677 1199.96C124.677 1199.53 124.89 1199.32 125.317 1199.32H132.517L146.037 1230.84L145.637 1199.96C145.637 1199.53 145.877 1199.32 146.357 1199.32H154.277C154.597 1199.32 154.757 1199.53 154.757 1199.96L154.837 1254.52C154.837 1254.84 154.703 1255 154.437 1255H147.397L133.557 1225.56L134.117 1254.36C134.117 1254.79 133.877 1255 133.397 1255H125.397ZM173.981 1255C173.768 1255 173.661 1254.87 173.661 1254.6L173.821 1199.64C173.821 1199.43 173.928 1199.32 174.141 1199.32H189.501C192.541 1199.32 195.261 1200.07 197.661 1201.56C200.061 1203 201.954 1204.92 203.341 1207.32C204.728 1209.72 205.421 1212.33 205.421 1215.16C205.421 1217.45 204.888 1219.59 203.821 1221.56C202.808 1223.53 201.581 1225.13 200.141 1226.36C201.688 1227.91 202.888 1229.69 203.741 1231.72C204.594 1233.75 205.021 1235.88 205.021 1238.12C205.021 1241.21 204.274 1244.04 202.781 1246.6C201.288 1249.16 199.261 1251.21 196.701 1252.76C194.194 1254.25 191.394 1255 188.301 1255H173.981ZM183.421 1221.4H189.501C191.368 1221.4 192.861 1220.76 193.981 1219.48C195.154 1218.15 195.741 1216.71 195.741 1215.16C195.741 1213.45 195.128 1211.99 193.901 1210.76C192.674 1209.48 191.208 1208.84 189.501 1208.84H183.421V1221.4ZM183.341 1245.24H188.301C190.221 1245.24 191.874 1244.55 193.261 1243.16C194.648 1241.72 195.341 1240.04 195.341 1238.12C195.341 1236.2 194.648 1234.55 193.261 1233.16C191.874 1231.77 190.221 1231.08 188.301 1231.08H183.421L183.341 1245.24ZM211.09 1255C210.877 1255 210.77 1254.87 210.77 1254.6L210.93 1199.64C210.93 1199.43 211.037 1199.32 211.25 1199.32H227.41C230.29 1199.32 232.93 1200.04 235.33 1201.48C237.784 1202.87 239.73 1204.76 241.17 1207.16C242.61 1209.51 243.33 1212.17 243.33 1215.16C243.33 1217.13 243.037 1218.92 242.45 1220.52C241.864 1222.07 241.17 1223.4 240.37 1224.52C239.57 1225.59 238.85 1226.39 238.21 1226.92C241.09 1230.12 242.53 1233.88 242.53 1238.2L242.61 1254.6C242.61 1254.87 242.477 1255 242.21 1255H233.17C232.957 1255 232.85 1254.92 232.85 1254.76V1238.2C232.85 1236.28 232.157 1234.63 230.77 1233.24C229.437 1231.8 227.784 1231.08 225.81 1231.08H220.53L220.45 1254.6C220.45 1254.87 220.344 1255 220.13 1255H211.09ZM220.53 1221.48H227.41C229.064 1221.48 230.53 1220.87 231.81 1219.64C233.09 1218.41 233.73 1216.92 233.73 1215.16C233.73 1213.45 233.09 1211.99 231.81 1210.76C230.584 1209.53 229.117 1208.92 227.41 1208.92H220.53V1221.48ZM249.764 1255C249.497 1255 249.364 1254.87 249.364 1254.6L249.444 1199.64C249.444 1199.43 249.551 1199.32 249.764 1199.32H258.724C258.937 1199.32 259.044 1199.43 259.044 1199.64L259.124 1254.6C259.124 1254.87 259.017 1255 258.804 1255H249.764ZM266.561 1255C266.294 1255 266.161 1254.87 266.161 1254.6L266.321 1199.64C266.321 1199.43 266.428 1199.32 266.641 1199.32L281.601 1199.24C284.534 1199.19 287.201 1199.88 289.601 1201.32C292.054 1202.76 294.001 1204.71 295.441 1207.16C296.881 1209.56 297.601 1212.23 297.601 1215.16V1238.12C297.601 1241.21 296.854 1244.04 295.361 1246.6C293.868 1249.11 291.868 1251.11 289.361 1252.6C286.854 1254.09 284.028 1254.87 280.881 1254.92L266.561 1255ZM275.921 1245.16H280.881C282.854 1245.16 284.508 1244.47 285.841 1243.08C287.228 1241.69 287.921 1240.04 287.921 1238.12V1215.08C287.921 1213.37 287.281 1211.91 286.001 1210.68C284.774 1209.4 283.308 1208.79 281.601 1208.84L276.001 1208.92L275.921 1245.16ZM316.582 1255.8C313.702 1255.8 311.089 1255.08 308.742 1253.64C306.396 1252.2 304.502 1250.28 303.062 1247.88C301.676 1245.43 300.982 1242.71 300.982 1239.72V1214.36C300.982 1211.48 301.676 1208.84 303.062 1206.44C304.502 1203.99 306.396 1202.04 308.742 1200.6C311.142 1199.16 313.756 1198.44 316.582 1198.44C319.516 1198.44 322.156 1199.16 324.502 1200.6C326.902 1201.99 328.796 1203.88 330.182 1206.28C331.569 1208.68 332.262 1211.37 332.262 1214.36V1218.04C332.262 1218.25 332.129 1218.36 331.862 1218.36H322.902C322.689 1218.36 322.582 1218.25 322.582 1218.04V1215C322.582 1212.97 321.996 1211.29 320.822 1209.96C319.702 1208.63 318.289 1207.96 316.582 1207.96C315.036 1207.96 313.649 1208.6 312.422 1209.88C311.249 1211.16 310.662 1212.65 310.662 1214.36V1239.72C310.662 1241.48 311.249 1243 312.422 1244.28C313.596 1245.51 314.982 1246.12 316.582 1246.12C318.289 1246.12 319.702 1245.51 320.822 1244.28C321.996 1243.05 322.582 1241.53 322.582 1239.72V1235.8H316.982C316.716 1235.8 316.582 1235.67 316.582 1235.4V1226.44C316.582 1226.17 316.716 1226.04 316.982 1226.04H331.942C332.156 1226.04 332.262 1226.17 332.262 1226.44V1239.72C332.262 1242.71 331.542 1245.43 330.102 1247.88C328.716 1250.28 326.849 1252.2 324.502 1253.64C322.156 1255.08 319.516 1255.8 316.582 1255.8ZM338.278 1255C338.064 1255 337.958 1254.87 337.958 1254.6L338.038 1199.64C338.038 1199.43 338.144 1199.32 338.358 1199.32H364.038C364.251 1199.32 364.358 1199.45 364.358 1199.72V1208.68C364.358 1208.89 364.251 1209 364.038 1209H347.638V1221.48H364.038C364.251 1221.48 364.358 1221.59 364.358 1221.8L364.438 1230.84C364.438 1231.05 364.331 1231.16 364.118 1231.16H347.638V1245.16H364.118C364.331 1245.16 364.438 1245.29 364.438 1245.56V1254.68C364.438 1254.89 364.331 1255 364.118 1255H338.278Z" fill="white"/>
<path d="M97 1281H287.081" stroke="white" stroke-width="9"/>
<path d="M297 1281H321.617" stroke="#EB018A" stroke-width="9"/>
<path d="M18.2797 130C18.013 130 17.8797 129.867 17.8797 129.6L18.0397 74.64C18.0397 74.4267 18.1464 74.32 18.3597 74.32H33.7197C38.6264 74.32 42.493 75.8133 45.3197 78.8C48.1997 81.7867 49.6397 85.84 49.6397 90.96C49.6397 94.7467 48.893 98.0267 47.3997 100.8C45.9064 103.573 43.9597 105.707 41.5597 107.2C39.1597 108.693 36.5464 109.44 33.7197 109.44H27.6397V129.6C27.6397 129.867 27.5064 130 27.2397 130H18.2797ZM27.6397 99.76H33.7197C35.4264 99.76 36.893 98.96 38.1197 97.36C39.3997 95.7067 40.0397 93.5733 40.0397 90.96C40.0397 88.88 39.4797 87.1733 38.3597 85.84C37.2397 84.5067 35.693 83.84 33.7197 83.84L27.6397 83.92V99.76ZM54.7622 130C54.5489 130 54.4422 129.867 54.4422 129.6L54.6022 74.64C54.6022 74.4267 54.7089 74.32 54.9222 74.32H71.0822C73.9622 74.32 76.6022 75.04 79.0022 76.48C81.4555 77.8667 83.4022 79.76 84.8422 82.16C86.2822 84.5067 87.0022 87.1733 87.0022 90.16C87.0022 92.1333 86.7089 93.92 86.1222 95.52C85.5355 97.0667 84.8422 98.4 84.0422 99.52C83.2422 100.587 82.5222 101.387 81.8822 101.92C84.7622 105.12 86.2022 108.88 86.2022 113.2L86.2822 129.6C86.2822 129.867 86.1489 130 85.8822 130H76.8422C76.6289 130 76.5222 129.92 76.5222 129.76V113.2C76.5222 111.28 75.8289 109.627 74.4422 108.24C73.1089 106.8 71.4555 106.08 69.4822 106.08H64.2022L64.1222 129.6C64.1222 129.867 64.0155 130 63.8022 130H54.7622ZM64.2022 96.48H71.0822C72.7355 96.48 74.2022 95.8667 75.4822 94.64C76.7622 93.4133 77.4022 91.92 77.4022 90.16C77.4022 88.4533 76.7622 86.9867 75.4822 85.76C74.2555 84.5333 72.7889 83.92 71.0822 83.92H64.2022V96.48ZM107.445 130.8C104.565 130.8 101.925 130.08 99.5253 128.64C97.1786 127.147 95.2853 125.2 93.8453 122.8C92.4053 120.347 91.6853 117.653 91.6853 114.72L91.7653 89.36C91.7653 86.4267 92.4586 83.76 93.8453 81.36C95.2853 78.96 97.2053 77.04 99.6053 75.6C102.005 74.16 104.619 73.44 107.445 73.44C110.325 73.44 112.939 74.16 115.285 75.6C117.632 77.04 119.499 78.96 120.885 81.36C122.325 83.76 123.045 86.4267 123.045 89.36L123.125 114.72C123.125 117.653 122.405 120.347 120.965 122.8C119.579 125.2 117.685 127.147 115.285 128.64C112.939 130.08 110.325 130.8 107.445 130.8ZM107.445 121.12C109.045 121.12 110.432 120.48 111.605 119.2C112.832 117.867 113.445 116.373 113.445 114.72L113.365 89.36C113.365 87.6 112.805 86.1067 111.685 84.88C110.565 83.6533 109.152 83.04 107.445 83.04C105.792 83.04 104.379 83.6533 103.205 84.88C102.032 86.0533 101.445 87.5467 101.445 89.36V114.72C101.445 116.48 102.032 118 103.205 119.28C104.379 120.507 105.792 121.12 107.445 121.12ZM129.528 130C129.314 130 129.208 129.867 129.208 129.6L129.368 74.64C129.368 74.4267 129.474 74.32 129.688 74.32H145.048C148.088 74.32 150.808 75.0667 153.208 76.56C155.608 78 157.501 79.92 158.888 82.32C160.274 84.72 160.968 87.3333 160.968 90.16C160.968 92.4533 160.434 94.5867 159.368 96.56C158.354 98.5333 157.128 100.133 155.688 101.36C157.234 102.907 158.434 104.693 159.288 106.72C160.141 108.747 160.568 110.88 160.568 113.12C160.568 116.213 159.821 119.04 158.328 121.6C156.834 124.16 154.808 126.213 152.248 127.76C149.741 129.253 146.941 130 143.848 130H129.528ZM138.968 96.4H145.048C146.914 96.4 148.408 95.76 149.528 94.48C150.701 93.1467 151.288 91.7067 151.288 90.16C151.288 88.4533 150.674 86.9867 149.448 85.76C148.221 84.48 146.754 83.84 145.048 83.84H138.968V96.4ZM138.888 120.24H143.848C145.768 120.24 147.421 119.547 148.808 118.16C150.194 116.72 150.888 115.04 150.888 113.12C150.888 111.2 150.194 109.547 148.808 108.16C147.421 106.773 145.768 106.08 143.848 106.08H138.968L138.888 120.24ZM166.637 130C166.424 130 166.317 129.867 166.317 129.6L166.397 74.72C166.397 74.4533 166.531 74.32 166.797 74.32H175.677C175.944 74.32 176.077 74.4533 176.077 74.72L175.997 120.16H192.477C192.744 120.16 192.877 120.293 192.877 120.56V129.6C192.877 129.867 192.744 130 192.477 130H166.637ZM198.434 130C198.221 130 198.114 129.867 198.114 129.6L198.194 74.64C198.194 74.4267 198.301 74.32 198.514 74.32H224.194C224.407 74.32 224.514 74.4533 224.514 74.72V83.68C224.514 83.8933 224.407 84 224.194 84H207.794V96.48H224.194C224.407 96.48 224.514 96.5867 224.514 96.8L224.594 105.84C224.594 106.053 224.487 106.16 224.274 106.16H207.794V120.16H224.274C224.487 120.16 224.594 120.293 224.594 120.56V129.68C224.594 129.893 224.487 130 224.274 130H198.434ZM232.028 130C231.814 130 231.708 129.867 231.708 129.6L231.868 74.64C231.868 74.4267 231.974 74.32 232.188 74.32H241.948C242.161 74.32 242.348 74.4267 242.508 74.64L249.788 85.2L257.068 74.64C257.228 74.4267 257.414 74.32 257.628 74.32H267.468C267.681 74.32 267.788 74.4267 267.788 74.64L267.948 129.6C267.948 129.867 267.841 130 267.628 130H258.588C258.374 130 258.268 129.867 258.268 129.6L258.188 88.8L249.788 100.96L241.468 88.8L241.388 129.6C241.388 129.867 241.281 130 241.068 130H232.028ZM288.277 130.8C285.397 130.8 282.757 130.08 280.357 128.64C278.01 127.147 276.117 125.2 274.677 122.8C273.29 120.347 272.597 117.653 272.597 114.72V111.04C272.597 110.773 272.73 110.64 272.997 110.64H281.957C282.17 110.64 282.277 110.773 282.277 111.04V114.72C282.277 116.48 282.863 118 284.037 119.28C285.21 120.507 286.623 121.12 288.277 121.12C289.93 121.12 291.343 120.48 292.517 119.2C293.69 117.92 294.277 116.427 294.277 114.72C294.277 112.747 292.997 111.04 290.437 109.6C289.583 109.12 288.25 108.373 286.437 107.36C284.623 106.347 282.917 105.387 281.317 104.48C278.383 102.773 276.197 100.64 274.757 98.08C273.37 95.4667 272.677 92.5333 272.677 89.28C272.677 86.2933 273.397 83.6267 274.837 81.28C276.277 78.88 278.17 76.9867 280.517 75.6C282.917 74.2133 285.503 73.52 288.277 73.52C291.103 73.52 293.69 74.24 296.037 75.68C298.437 77.0667 300.33 78.96 301.717 81.36C303.157 83.7067 303.877 86.3467 303.877 89.28V95.84C303.877 96.0533 303.77 96.16 303.557 96.16H294.597C294.383 96.16 294.277 96.0533 294.277 95.84L294.197 89.28C294.197 87.4133 293.61 85.8933 292.437 84.72C291.263 83.5467 289.877 82.96 288.277 82.96C286.623 82.96 285.21 83.6 284.037 84.88C282.863 86.1067 282.277 87.5733 282.277 89.28C282.277 91.04 282.65 92.5067 283.397 93.68C284.143 94.8533 285.503 95.9733 287.477 97.04C287.743 97.2 288.25 97.4933 288.997 97.92C289.797 98.2933 290.65 98.7467 291.557 99.28C292.463 99.76 293.263 100.187 293.957 100.56C294.703 100.933 295.157 101.173 295.317 101.28C297.983 102.773 300.09 104.613 301.637 106.8C303.183 108.933 303.957 111.573 303.957 114.72C303.957 117.76 303.237 120.507 301.797 122.96C300.41 125.36 298.517 127.28 296.117 128.72C293.77 130.107 291.157 130.8 288.277 130.8Z" fill="white"/>
<path d="M78 156H268.081" stroke="white" stroke-width="9"/>
<path d="M278 156H302.617" stroke="#EB018A" stroke-width="9"/>
<line x1="410.5" x2="410.5" y2="566" stroke="#EB018A"/>
<line x1="410" y1="249.5" x2="535.004" y2="249.5" stroke="white"/>
<line x1="410.5" y1="1286" x2="410.5" y2="1852" stroke="#EB018A"/>
<line x1="410" y1="1507.5" x2="535.004" y2="1507.5" stroke="white"/>
</svg>
